<svg width="500" height="500" viewBox="0 0 500 500" fill="none" xmlns="http://www.w3.org/2000/svg">
<path fill-rule="evenodd" clip-rule="evenodd" d="M250 500C388.071 500 500 388.071 500 250C500 111.929 388.071 0 250 0C111.929 0 0 111.929 0 250C0 388.071 111.929 500 250 500ZM80.3845 156.021C90.2306 146.172 106.221 146.172 116.067 156.021L242.096 282.078C251.942 291.926 251.942 307.92 242.096 317.768L179.081 380.797C169.235 390.645 153.245 390.645 143.399 380.797C133.553 370.948 133.553 354.955 143.399 345.107L188.612 299.884L80.3845 191.711C70.5385 181.862 70.5385 165.869 80.3845 156.021ZM181.208 80.3862C191.054 70.538 207.044 70.538 216.89 80.3862H216.969L418.615 282.078C428.462 291.926 428.462 307.92 418.615 317.768L317.792 418.614C307.946 428.462 291.956 428.462 282.11 418.614C272.264 408.766 272.264 392.772 282.11 382.924L365.053 299.884L181.208 116.076C171.362 106.228 171.362 90.2344 181.208 80.3862Z" fill="#3D63DD"/>
</svg>
