<?xml version="1.0" encoding="UTF-8"?><svg id="Layer_2" xmlns="http://www.w3.org/2000/svg" viewBox="0 0 1778.83 268.27"><defs><style>.cls-1{fill:#FFFFFF;stroke-width:0px;}</style></defs><g id="Layer_1-2"><path class="cls-1" d="m643.4,127.56c0-13.23-.09-25.48.14-37.73.02-1.18,1.78-2.64,3.07-3.43,12.57-7.69,26.59-10.9,40.96-12.87,19.05-2.61,37.96-3.63,56.75,2.42,22.06,7.1,38.68,27.41,39.11,50.72.58,31.95.31,63.91.14,95.86-.1,18.94-10.38,30.76-27.38,37.65-12.86,5.21-26.45,6.05-40.02,7.11-15.68,1.22-31.29.95-46.53-3.32-13.39-3.75-25.18-10.1-33.64-21.71-7.82-10.73-10.33-22.88-9.99-35.76.3-11.02,1.75-21.92,6.82-31.92,8.44-16.64,22.62-25.81,40.44-29.24,24.11-4.65,47.96-3.61,71.13,5.35.59.23,1.29.19,3.25.44-.91-8.74-.96-17.26-2.84-25.35-2.53-10.89-11.3-16.52-21.47-18.4-27.13-5.03-52.55-.9-74.85,16.6-1.37,1.08-2.85,2.02-5.09,3.59Zm103.48,77.49c0-5.33-.2-10.67.07-15.98.17-3.42-1.07-4.95-4.31-6.06-17.99-6.16-36.37-7.88-55.08-4.81-7.77,1.27-15.12,4.15-20.16,10.74-10.77,14.07-4.73,34.51,12.65,40.8,19.72,7.13,39.96,5.54,60.01,1.09,4.38-.97,6.88-4.43,6.82-9.29-.06-5.49-.01-10.99,0-16.49Z"/><path class="cls-1" d="m1418.31,151.73c-.49-8.02-.4-15.03-1.46-21.86-2.02-12.95-10.75-20.27-22.9-22.54-27.17-5.08-52.55-.76-74.81,16.77-1.27,1-2.63,1.9-4.87,3.52,0-6.23,0-11.6,0-16.98,0-6.16.15-12.32-.06-18.48-.1-3.06.95-4.69,3.68-6.23,12.36-6.98,25.78-10.36,39.67-12.31,18.2-2.56,36.3-3.62,54.39,1.31,27.03,7.36,42.41,29.49,42.55,56.21.16,30.3.16,60.6,0,90.9-.11,20.19-11.79,34.98-34.01,40.38-26.38,6.42-53.32,8.42-79.98,1.47-20.07-5.23-35.82-16.56-41.3-37.67-5.97-23.03-2.28-55.26,21.5-71.33,11.62-7.86,24.8-10.96,38.57-11.77,19.76-1.17,39.17.47,59.04,8.59Zm-.37,52.86c0-5-.26-10.01.08-14.98.27-3.91-1.4-5.6-4.88-6.77-18.01-6.02-36.41-7.79-55.1-4.62-8.11,1.38-15.78,4.55-20.6,11.85-9.65,14.6-3.07,34.03,13.77,39.86,18.81,6.52,38,5.29,57.14,1.43,6.99-1.41,9.3-4.3,9.54-11.29.18-5.16.04-10.32.05-15.48Z"/><path class="cls-1" d="m1101.38,201.97c7.2,5.15,13.27,10.38,20.12,14.24,26.53,14.93,54.76,20.1,84.52,12.07,12.38-3.34,19.23-12.7,21.4-25.08,2.28-13.01-.77-24.29-12.04-32.6-12.63-9.3-27.45-13.82-41.6-19.88-13.68-5.85-27.79-11.06-40.61-18.46-18.63-10.75-26.46-28.66-27.43-49.65-1.76-37.99,24.03-65.65,62.07-70.41,28.71-3.6,55.05,2.94,80.13,16.28,1.37.73,3.12,2.44,3.15,3.73.24,12.08.14,24.17.14,36.52-10.51-5.6-20.28-11.56-30.65-16.16-19.06-8.45-38.92-9.61-58.88-3.34-10.97,3.45-17.6,11.5-18.99,22.84-1.45,11.85.99,23.38,11.96,29.72,11.1,6.42,23.23,11.14,35.13,16.06,15.9,6.57,32.54,11.37,46.95,21.31,14.5,10,24.07,23.15,26.93,40.67,3.32,20.3.12,39.47-11.86,56.49-12.36,17.56-30.22,26.02-51.03,28.54-20.64,2.5-41.38,2.47-61.25-4.13-12.5-4.15-24.25-10.57-36.27-16.11-.91-.42-1.8-2.01-1.81-3.07-.12-12.95-.08-25.91-.08-39.58Z"/><path class="cls-1" d="m255.8,202.05c7.18,5.12,13.28,10.34,20.14,14.18,26.71,14.98,55.12,20.18,85.01,11.88,11.89-3.3,18.61-12.58,20.78-24.52,2.31-12.72-.36-24.07-11.26-32.49-11.5-8.89-25.11-13.37-38.28-18.77-11.82-4.84-23.88-9.16-35.45-14.54-22.35-10.4-34.78-28.17-36.52-52.84-1.72-24.44,6.54-44.85,26.56-59.54,14.48-10.62,31.4-13.57,49-14.14,21.33-.7,40.9,5.1,60.11,13.89,7.48,3.42,10.56,7.09,9.77,15.38-.86,9.07-.2,18.29-.2,28.38-5.62-3.19-10.76-6-15.8-8.98-15.45-9.14-31.86-15.24-50.07-14.28-7.87.41-15.92,1.46-23.45,3.69-11.13,3.29-17.89,11.37-19.13,23.11-1.24,11.75,1.3,22.85,11.92,29.29,9.55,5.79,20.09,10.03,30.41,14.44,13.43,5.73,27.43,10.21,40.55,16.53,30.09,14.51,43.3,39.3,38.27,72.86-3.37,22.46-14.54,39.71-34.65,50.64-13.6,7.39-28.54,9.12-43.79,9.93-29.56,1.58-56.43-6.63-81.7-21.21-1.04-.6-2.13-2.21-2.14-3.36-.15-12.95-.1-25.91-.1-39.52Z"/><path class="cls-1" d="m1767.78,214.8c0,10.4-.5,20.18.17,29.89.47,6.91-1.79,10.22-8.35,12.63-28.63,10.5-57.75,14.45-87.56,6.66-25.64-6.7-43.05-23.35-51.59-48.24-11.08-32.29-11.36-65.12.73-97.11,10.12-26.76,30.77-41.87,59.01-46.09,17.7-2.65,35.2-1.64,51.89,5.58,17.51,7.57,29.27,20.84,36.74,38.07,8.1,18.67,9.78,38.48,10.01,58.54.05,4.44-2.77,3.69-5.32,3.69-39.15.02-78.29.01-117.44.01h-5.85c-.7,28.48,14.54,53.14,45.3,54.88,24.51,1.39,47.54-3.48,68.47-16.82.91-.58,2-.9,3.79-1.68Zm-27.89-70.98c-1.01-17.07-10.11-30.97-24.07-35.24-13.55-4.15-27.02-3.69-40.63.25-12.53,3.63-22.41,19.19-22.88,34.99h87.58Z"/><path class="cls-1" d="m1069.34,178.51h-128.39c-.31,30.86,15.79,53.05,45.76,54.8,24.68,1.44,47.85-3.7,68.83-17.26.66-.43,1.37-.79,2.58-1.49.14,1.88.32,3.28.33,4.67.03,9.32-.43,18.68.18,27.96.36,5.49-2.06,7.64-6.5,9.4-26.72,10.55-54.32,14.43-82.59,9.1-29.33-5.53-49.38-23.09-58.84-51.36-10.56-31.56-10.68-63.69.91-94.9,10.22-27.52,31.41-42.8,60.42-47.1,12.79-1.89,25.5-1.18,38.14,1.56,20.48,4.44,35.44,16.47,45.47,34.34,12.08,21.53,14.34,45.24,13.69,70.27Zm-38.6-34.6c-.65-18.28-11.29-32.45-27.65-36.42-11.29-2.74-22.66-2.43-34.03.34-15.51,3.78-25.07,18.61-25.99,36.07h87.67Z"/><path class="cls-1" d="m1517.34,108.87c-9.14,0-17.44-.16-25.73.07-3.75.1-5.36-.75-5.19-4.93.33-8.15.27-16.32.02-24.47-.12-3.83.88-5.3,4.98-5.14,8.3.31,16.63.09,25.25.09.53-7.56.7-14.84,1.62-22.02,2.01-15.78,7.62-29.89,20.28-40.4,7.91-6.58,17.12-10,27.23-11.2,12.14-1.44,24.18-1.39,36.03,2.6v32.14c-9.26-.25-18.32-1.02-27.32-.61-10.98.49-16.13,4.62-18.66,15.27-1.81,7.62-2.08,15.61-3.12,24.09h48.98v34.34h-48.09v153.68h-36.26V108.87Z"/><path class="cls-1" d="m595.94,217.38c0,12.05.1,23.34-.15,34.62-.03,1.18-1.93,2.9-3.3,3.38-25.81,9.15-52.08,12.63-79.33,7.27-33.34-6.56-53.66-28.86-60.35-60.96-5.22-25.09-5.43-50.37,2.2-74.99,9.42-30.41,30.43-48.14,61.95-53.38,26.11-4.34,51.3-.86,75.81,8.53,1.34.51,3.01,2.46,3.03,3.78.24,10.97.14,21.94.14,32.91-9.65-3.02-18.83-6.39-28.27-8.74-14.68-3.64-29.67-4.26-44.56-1.52-17.14,3.16-28.87,12.85-33.47,30.12-5.61,21.04-5.72,42.11.86,62.91,5.66,17.89,19.42,25.65,37.08,27.86,22.52,2.81,43.97-1.29,64.66-10.2.9-.39,1.79-.77,3.7-1.6Z"/><path class="cls-1" d="m830.16,7.41h35.94v254.85h-35.94V7.41Z"/><path class="cls-1" d="m.06,0h229.2c.03.72.09,1.39.09,2.06,0,61.28,0,122.55.04,183.83,0,1.34-.37,2.19-1.47,2.96-10.52,7.36-21.02,14.76-31.51,22.16-14.25,10.06-28.49,20.14-42.73,30.2-10.29,7.26-20.59,14.51-30.88,21.76-2.11,1.49-4.31,2.86-6.29,4.51-1.41,1.17-2.43.91-3.76-.03-9.9-7.06-19.83-14.09-29.77-21.1-13.32-9.41-26.65-18.8-39.98-28.21-13.31-9.4-26.57-18.88-39.97-28.15C.66,188.35,0,186.62,0,183.86.08,123.47.06,63.07.06,2.68c0-.86,0-1.73,0-2.68Zm26.13,26.24v1.91c0,48.1,0,96.21-.03,144.31,0,1.31.46,2.08,1.46,2.78,11.23,7.9,22.45,15.81,33.67,23.72,16.96,11.96,33.92,23.93,50.87,35.91,2.6,1.84,2.54,1.83,5.13,0,15.62-11.06,31.26-22.11,46.89-33.15,12.55-8.86,25.1-17.73,37.68-26.55,1.07-.75,1.4-1.55,1.39-2.8-.03-48.04-.02-96.08-.03-144.12,0-.66-.06-1.32-.09-2.01H26.19Z"/><path class="cls-1" d="m114.91,41.39h73.17c0,.77,0,1.45,0,2.12,0,40.34,0,80.68.03,121.01,0,1.36-.45,2.12-1.54,2.89-19.31,13.58-38.59,27.2-57.88,40.81-4.52,3.19-9.05,6.36-13.78,9.69V41.39Z"/></g></svg>